<svg width="80" height="40" viewBox="30 30 260 135" fill="none" xmlns="http://www.w3.org/2000/svg">
<path fill-rule="evenodd" clip-rule="evenodd" d="M78.2873 65.241C79.0596 64.8612 79.8144 64.4858 80.5956 64.1324C81.6107 63.6686 82.6347 63.2446 83.6719 62.825C84.484 62.5114 85.2608 62.1758 86.0729 61.8843C87.1454 61.4867 88.2179 61.1466 89.2905 60.7977C90.1026 60.5371 90.9235 60.2456 91.7488 60.0204C92.8655 59.6935 94.0042 59.4373 95.1429 59.1458C95.9683 58.9559 96.7848 58.7439 97.6102 58.5716C98.8283 58.3111 100.042 58.1079 101.26 57.9135C102.068 57.781 102.854 57.6309 103.661 57.516C105.021 57.3173 106.415 57.2069 107.792 57.0832C108.49 57.0258 109.169 56.9286 109.867 56.8844C111.968 56.7298 114.091 56.6592 116.231 56.6592C118.248 56.6592 120.252 56.7475 122.238 56.8712C122.565 56.8844 122.9 56.8977 123.227 56.933C125.134 57.0699 127.036 57.2775 128.898 57.5249C129.044 57.5381 129.194 57.5469 129.349 57.5779L129.362 57.5381C129.481 57.3084 129.587 57.0964 129.693 56.8447C130.011 56.0982 130.32 55.3871 130.633 54.6716C130.876 54.1593 131.11 53.6292 131.348 53.1301C131.666 52.4411 131.997 51.7698 132.328 51.0984C132.575 50.6214 132.796 50.1267 133.047 49.6629C133.383 49.0181 133.718 48.3953 134.058 47.7637C134.301 47.322 134.548 46.8759 134.795 46.4343C135.144 45.8336 135.484 45.2771 135.832 44.7073C136.084 44.2833 136.344 43.8637 136.596 43.4706C136.944 42.9185 137.306 42.3929 137.655 41.8673C137.915 41.483 138.18 41.1076 138.427 40.7498C138.807 40.2286 139.169 39.7693 139.54 39.2834C139.796 38.9389 140.052 38.6033 140.312 38.2764C140.692 37.8082 141.08 37.3842 141.46 36.9381C141.724 36.651 141.98 36.3418 142.245 36.068C142.629 35.6307 143.031 35.2553 143.433 34.8622C143.64 34.6546 143.852 34.4294 144.064 34.2439C142.188 34.4559 140.339 34.6723 138.48 34.9726C138.357 35.0036 138.211 35.0345 138.074 35.0566C135.775 35.4408 133.497 35.8957 131.229 36.4125C131.021 36.4699 130.814 36.5053 130.602 36.5539C115.759 40.0034 101.578 46.1781 88.9197 54.7732L88.8976 54.7423C88.8844 54.7511 88.8579 54.7732 88.8579 54.782C82.7627 58.9338 77.1353 63.6554 71.9051 68.7391C72.3156 68.483 72.7261 68.2665 73.1145 68.028C73.8471 67.604 74.5666 67.18 75.2992 66.7781C76.2923 66.2392 77.2854 65.7401 78.2873 65.241Z" fill="#EF8200"/>
<path fill-rule="evenodd" clip-rule="evenodd" d="M174.891 35.8948C175.403 36.4381 175.906 37.03 176.414 37.6262C176.555 37.7941 176.7 37.9531 176.85 38.1342C177.27 38.6421 177.68 39.1854 178.077 39.7242C178.298 40.0334 178.545 40.3161 178.766 40.6252C179.128 41.1111 179.463 41.6455 179.816 42.1446C180.09 42.551 180.359 42.9529 180.637 43.3813C180.933 43.8628 181.246 44.3663 181.555 44.8786C181.851 45.3777 182.156 45.8724 182.456 46.3803C182.738 46.875 183.012 47.3874 183.29 47.8865C183.617 48.4607 183.912 49.0348 184.217 49.6355C184.482 50.1346 184.746 50.6558 184.994 51.1682C185.311 51.813 185.638 52.4623 185.938 53.1336C186.19 53.6548 186.419 54.1848 186.68 54.7281C186.98 55.426 187.293 56.1459 187.607 56.8835C187.712 57.1132 187.823 57.3517 187.924 57.5858L187.96 57.6123C188.101 57.5858 188.269 57.5814 188.423 57.5637C190.321 57.3119 192.267 57.0955 194.209 56.9365C194.549 56.9144 194.871 56.8879 195.207 56.8835C197.237 56.7466 199.267 56.6582 201.311 56.6582C203.474 56.6582 205.592 56.7289 207.697 56.8835C208.368 56.9277 209.03 57.0248 209.706 57.0823C211.122 57.2059 212.53 57.3164 213.907 57.5195C214.697 57.6123 215.439 57.7757 216.211 57.8994C217.478 58.1025 218.727 58.3101 219.963 58.5751C220.753 58.7341 221.517 58.9506 222.315 59.1272C223.489 59.4232 224.681 59.697 225.846 60.0283C226.619 60.2491 227.387 60.5097 228.15 60.757C229.298 61.1192 230.432 61.4858 231.544 61.9054C232.299 62.1748 233.023 62.4884 233.764 62.7755C234.872 63.226 235.976 63.6766 237.057 64.1712C237.768 64.5025 238.456 64.8426 239.162 65.1915C240.235 65.726 241.298 66.256 242.34 66.8434C243.029 67.2056 243.682 67.5987 244.348 67.9874C244.882 68.3142 245.443 68.6101 245.986 68.9281C230.344 53.6106 210.902 42.5995 189.535 37.158C189.478 37.1448 189.412 37.1271 189.341 37.1095C188.299 36.8577 187.253 36.6104 186.19 36.3763C185.647 36.257 185.1 36.1289 184.557 36.0053C183.648 35.8153 182.721 35.6387 181.811 35.4797C181.092 35.3471 180.386 35.2191 179.68 35.091C178.837 34.9496 177.998 34.8215 177.168 34.6979C176.33 34.5654 175.509 34.455 174.683 34.349C174.167 34.2915 173.668 34.2297 173.17 34.1723C173.743 34.6979 174.321 35.2941 174.891 35.8948C174.882 35.8948 174.904 35.8993 174.891 35.8948Z" fill="#EF8200"/>
<path fill-rule="evenodd" clip-rule="evenodd" d="M124.789 62.7019C124.127 62.6401 123.474 62.5738 122.829 62.5252C120.645 62.3662 118.442 62.2602 116.231 62.2602C83.2523 62.2602 56.5586 80.2057 43.0043 111.481C37.655 124.586 34.5699 138.446 33.8505 152.641C33.8019 153.401 33.8681 155.945 33.952 158.944C34.283 158.056 34.5699 157.142 34.9009 156.245C46.0498 127.567 58.6728 98.584 77.1041 98.584C95.2133 98.584 104.959 131.291 112.444 160.49C112.603 157.734 112.78 154.929 112.978 152.098C113.618 118.142 118.729 86.1861 127.261 63.0111C126.427 62.9139 125.614 62.7946 124.789 62.7019Z" fill="#F5AB00"/>
<path fill-rule="evenodd" clip-rule="evenodd" d="M283.133 145.729C283.022 144.713 282.921 143.679 282.793 142.663C282.691 141.97 282.59 141.272 282.488 140.605C282.352 139.655 282.215 138.715 282.038 137.792C281.928 137.085 281.791 136.387 281.667 135.689C281.517 134.907 281.358 134.112 281.186 133.304C280.935 132.125 280.674 130.923 280.387 129.757C280.224 129.082 280.07 128.428 279.906 127.765C279.589 126.498 279.236 125.252 278.869 124.002C278.701 123.437 278.547 122.854 278.37 122.289C277.929 120.858 277.461 119.444 276.971 118.031C276.839 117.651 276.724 117.249 276.587 116.869C275.934 115.054 275.259 113.247 274.531 111.481C273.851 109.917 273.131 108.42 272.386 106.918C258.271 78.4738 232.636 62.2642 201.313 62.2642C199.079 62.2642 196.846 62.3613 194.626 62.5424C193.946 62.5822 193.289 62.6661 192.622 62.7235C191.753 62.8118 190.905 62.9532 190.04 63.0415C199.15 87.8419 204.358 122.523 204.376 159.05H204.305C204.332 159.368 204.349 159.708 204.358 160.017C210.339 128.993 221.58 98.588 239.989 98.588C253.155 98.588 275.391 128.516 284.174 158.255C284.099 157.199 283.428 148.569 283.318 147.522C283.278 146.917 283.199 146.32 283.133 145.729Z" fill="#F5AB00"/>
<path fill-rule="evenodd" clip-rule="evenodd" d="M182.231 58.4877C182.134 58.2492 182.032 58.0372 181.935 57.8075C181.578 57.0037 181.22 56.191 180.854 55.4269C180.704 55.1089 180.549 54.7997 180.395 54.4817C180.095 53.8412 179.773 53.1787 179.455 52.5559C179.278 52.2114 179.097 51.8713 178.912 51.5401C178.616 50.9836 178.316 50.427 178.025 49.8794C177.817 49.526 177.628 49.2036 177.425 48.8591C177.142 48.3732 176.851 47.8697 176.555 47.3839C176.352 47.057 176.145 46.7346 175.933 46.4033C175.641 45.9528 175.372 45.5288 175.081 45.0959C174.869 44.7868 174.64 44.4732 174.414 44.1684C174.136 43.7665 173.854 43.3778 173.567 42.998C173.342 42.7153 173.13 42.4194 172.896 42.1367C172.605 41.7833 172.344 41.43 172.044 41.1032C171.824 40.8337 171.594 40.5731 171.36 40.317C171.073 39.999 170.791 39.6942 170.508 39.4115C170.27 39.1642 170.036 38.9301 169.798 38.7048C169.515 38.4221 169.233 38.1527 168.933 37.9142C168.712 37.7022 168.474 37.4946 168.235 37.2959C167.944 37.0529 167.648 36.8453 167.361 36.6113C167.128 36.4302 166.889 36.2579 166.66 36.1033C166.373 35.9002 166.064 35.7146 165.773 35.5291C165.53 35.3878 165.305 35.2376 165.071 35.1095C164.762 34.9461 164.457 34.8004 164.148 34.6546C163.928 34.5619 163.711 34.4382 163.473 34.3366C163.164 34.2129 162.824 34.1069 162.511 34.0009C162.303 33.9258 162.096 33.8463 161.884 33.7889C161.527 33.6917 161.174 33.6211 160.807 33.5504C160.626 33.5151 160.459 33.4753 160.273 33.4444C159.739 33.3693 159.209 33.334 158.667 33.334C158.331 33.334 157.982 33.3693 157.638 33.4047C157.453 33.4179 157.276 33.4179 157.1 33.4444C156.601 33.5151 156.102 33.6211 155.612 33.7403C155.586 33.7492 155.559 33.7536 155.537 33.7624C155.039 33.8949 154.553 34.0716 154.059 34.2615C154.023 34.2703 154.001 34.2703 153.975 34.288C153.503 34.4824 153.017 34.6944 152.545 34.955C152.505 34.9726 152.457 34.9947 152.404 35.0256C151.958 35.2641 151.499 35.538 151.053 35.8295C150.982 35.8825 150.903 35.9311 150.824 35.9752C150.404 36.2579 149.976 36.5803 149.566 36.8939C149.46 36.9823 149.354 37.0529 149.248 37.1457C148.859 37.4681 148.467 37.7905 148.091 38.1527C147.946 38.2764 147.8 38.3956 147.663 38.5414C147.315 38.8727 146.953 39.2304 146.604 39.6059C146.428 39.7781 146.26 39.9636 146.092 40.1491C145.761 40.5069 145.443 40.8735 145.112 41.2577C144.914 41.4874 144.724 41.7303 144.534 41.9733C144.238 42.3399 143.925 42.7197 143.643 43.1216C143.426 43.4043 143.201 43.7047 142.976 44.0182C142.702 44.3937 142.429 44.7735 142.173 45.1666C141.917 45.5288 141.683 45.8998 141.44 46.2752C141.197 46.6507 140.955 47.0217 140.721 47.4192C140.443 47.8609 140.187 48.307 139.917 48.7663C139.692 49.1329 139.476 49.4995 139.269 49.8794C138.977 50.405 138.699 50.9526 138.404 51.5092C138.214 51.8448 138.033 52.1761 137.843 52.525C137.516 53.1743 137.194 53.8412 136.876 54.517C136.726 54.8041 136.594 55.0824 136.453 55.3871C136.056 56.2263 135.672 57.1008 135.279 57.9754C135.226 58.1255 135.155 58.2757 135.08 58.4215C135.058 58.4656 135.049 58.5231 135.023 58.5761C135.062 58.5849 135.102 58.5937 135.155 58.6026C137.018 59.0133 138.863 59.4682 140.694 59.9983C141.047 60.0954 141.414 60.2059 141.767 60.3119C143.55 60.8375 145.315 61.4293 147.05 62.0786C147.324 62.1802 147.593 62.3038 147.866 62.4054C149.535 63.0503 151.163 63.757 152.774 64.5167C152.951 64.605 153.123 64.6757 153.3 64.7552C154.977 65.5502 156.623 66.4291 158.238 67.3478C158.415 67.4494 158.596 67.5378 158.773 67.6305C158.949 67.5378 159.139 67.4494 159.315 67.3478C160.913 66.4468 162.529 65.5767 164.184 64.7905C164.36 64.6933 164.559 64.6315 164.735 64.5299C166.324 63.7967 167.918 63.1165 169.551 62.4761C169.833 62.3657 170.102 62.2553 170.394 62.1272C172.106 61.4867 173.845 60.9037 175.602 60.3649C175.964 60.2633 176.33 60.1573 176.683 60.0513C178.493 59.5301 180.315 59.0619 182.165 58.6556C182.213 58.6511 182.257 58.6379 182.293 58.6158C182.266 58.5937 182.257 58.5407 182.231 58.4877Z" fill="#EC6C00"/>
<path fill-rule="evenodd" clip-rule="evenodd" d="M118.337 139.944C122.185 122.109 133.74 84.9992 153.385 71.0597C153.2 70.9625 153.001 70.8786 152.807 70.7682C151.576 70.1366 150.349 69.5492 149.087 68.975C148.813 68.8513 148.557 68.7232 148.274 68.6128C146.84 67.9856 145.361 67.4114 143.87 66.8858C143.525 66.7622 143.194 66.6429 142.828 66.5325C141.508 66.0731 140.162 65.6624 138.807 65.2693L138.057 65.0484C136.503 64.6421 134.954 64.2711 133.365 63.9486C133.215 63.931 133.061 63.9045 132.911 63.8603C129.159 74.3105 120.274 114.397 118.337 139.944Z" fill="#F29700"/>
<path fill-rule="evenodd" clip-rule="evenodd" d="M180.55 64.8197C180.162 64.908 179.786 64.9831 179.416 65.0891C177.341 65.65 175.311 66.3037 173.312 67.0281C172.786 67.218 172.283 67.4433 171.749 67.642C170.271 68.2206 168.805 68.839 167.366 69.5103C166.749 69.793 166.144 70.0845 165.53 70.3893C165.093 70.6189 164.665 70.8795 164.22 71.1048C179.985 79.7043 192.396 115.834 199.604 138.969C197.684 115.834 188.102 74.2672 184.425 63.9716C183.114 64.2322 181.812 64.5017 180.55 64.8197Z" fill="#F29700"/>
</svg>
